<svg height="100" width="100" xmlns="http://www.w3.org/2000/svg" data-name="Layer 26"><path d="M45.53 52.74a.52.52 0 01-.45-.28.5.5 0 01.22-.67L48.88 50 10.5 30.81v38.38l3.5-1.75a.5.5 0 01.67.23.51.51 0 01-.22.67L11.12 70 49.5 89.19V50.81l-3.75 1.87a.46.46 0 01-.22.06zM23.39 63.86l-4.47 2.24a.44.44 0 01-.22.05.5.5 0 01-.45-.27.5.5 0 01.22-.67L22.94 63a.5.5 0 01.67.22.49.49 0 01-.22.64zm8.94-4.47l-4.47 2.24a.59.59 0 01-.22 0 .5.5 0 01-.22-1l4.47-2.23a.49.49 0 01.67.22.5.5 0 01-.23.77zm9-4.47l-4.47 2.24a.59.59 0 01-.23.05.48.48 0 01-.44-.28.49.49 0 01.22-.67L40.83 54a.5.5 0 01.67.23.49.49 0 01-.22.69zM54.7 51.79a.5.5 0 01.22.67.52.52 0 01-.45.28.46.46 0 01-.22-.06l-3.75-1.87v38.38L88.88 70l-3.33-1.66a.51.51 0 01-.22-.67.5.5 0 01.67-.23l3.5 1.75V30.81L51.12 50zm21.69 11.4a.5.5 0 01.67-.22l4.47 2.24a.49.49 0 01.22.67.5.5 0 01-.45.27.44.44 0 01-.22-.05l-4.47-2.24a.49.49 0 01-.22-.67zm-9-4.47a.5.5 0 01.67-.22l4.47 2.23a.5.5 0 01-.22 1 .59.59 0 01-.22 0l-4.47-2.24a.5.5 0 01-.18-.77zm-8.89-4.47a.5.5 0 01.67-.23l4.47 2.24a.49.49 0 01.22.67.48.48 0 01-.44.28.59.59 0 01-.23-.05l-4.47-2.24a.49.49 0 01-.22-.67zM50.5 10.81V15a.5.5 0 01-1 0v-4.19L11.12 30 50 49.44 88.88 30zm0 34.19a.5.5 0 01-1 0v-5a.5.5 0 011 0zm0-10a.5.5 0 01-1 0v-5a.5.5 0 011 0zm0-10a.5.5 0 01-1 0v-5a.5.5 0 011 0z"/></svg>